<?xml version="1.0" standalone="no"?>
<!DOCTYPE svg PUBLIC "-//W3C//DTD SVG 20010904//EN"
 "http://www.w3.org/TR/2001/REC-SVG-20010904/DTD/svg10.dtd">
<svg version="1.0" xmlns="http://www.w3.org/2000/svg"
 width="651.000000pt" height="651.000000pt" viewBox="0 0 651.000000 651.000000"
 preserveAspectRatio="xMidYMid meet">
<metadata>
Created by potrace 1.11, written by Peter Selinger 2001-2013
</metadata>
<g transform="translate(0.000000,651.000000) scale(0.100000,-0.100000)"
fill="#000000" stroke="none">
<path d="M2796 6424 c2 -21 -1 -25 -16 -21 -10 2 -24 1 -31 -4 -7 -4 -20 -4
-29 1 -9 5 -21 4 -30 -5 -9 -8 -34 -17 -55 -20 -22 -4 -58 -15 -80 -25 -22
-10 -65 -30 -95 -43 -63 -27 -174 -132 -205 -193 -11 -21 -23 -41 -26 -44 -3
-3 -19 -27 -35 -55 -15 -27 -34 -56 -41 -63 -7 -8 -11 -18 -8 -23 4 -5 2 -9
-4 -9 -5 0 -13 -9 -16 -20 -4 -11 -11 -18 -16 -15 -5 3 -6 -1 -3 -10 7 -17
-14 -48 -27 -39 -5 3 -6 -1 -3 -9 7 -18 -13 -70 -25 -63 -5 3 -15 -2 -22 -12
-13 -15 -12 -16 4 -3 15 12 17 11 17 -3 0 -9 -4 -16 -8 -16 -5 0 -9 -6 -9 -12
0 -7 -9 -33 -20 -58 -12 -25 -24 -72 -27 -105 -3 -33 -12 -89 -20 -125 -13
-64 -13 -89 0 -185 4 -27 7 -62 7 -77 0 -16 4 -28 10 -28 6 0 8 -3 4 -6 -3 -3
5 -16 19 -29 13 -12 24 -27 24 -33 0 -6 4 -12 8 -14 5 -1 35 -54 67 -116 45
-87 73 -127 124 -178 36 -37 81 -73 99 -80 18 -8 35 -21 39 -29 3 -8 11 -15
18 -15 7 0 19 -13 27 -30 7 -16 17 -30 21 -30 5 0 5 -4 2 -10 -3 -5 -1 -10 4
-10 6 0 11 -6 11 -14 0 -8 11 -24 25 -37 13 -13 25 -30 25 -36 0 -7 7 -13 15
-13 8 0 15 -6 15 -13 0 -7 10 -22 23 -33 31 -28 65 -148 47 -169 -7 -8 -17
-15 -21 -15 -14 0 -138 -80 -147 -94 -4 -6 -29 -30 -55 -51 -59 -48 -143 -172
-159 -232 -5 -24 -15 -44 -22 -44 -6 -1 -24 -3 -41 -4 -81 -6 -174 -41 -217
-83 -16 -14 -28 -22 -28 -18 0 5 -6 3 -14 -3 -7 -6 -46 -12 -86 -12 -65 -1
-78 -4 -120 -33 -26 -18 -67 -51 -91 -74 -23 -23 -51 -42 -61 -42 -25 0 -64
-54 -125 -171 -33 -65 -51 -110 -47 -121 3 -11 1 -24 -4 -31 -6 -7 -11 -37
-13 -67 -1 -30 -6 -68 -10 -85 -4 -16 -10 -50 -13 -75 -5 -46 -23 -117 -34
-135 -9 -14 -12 -32 -16 -95 -5 -69 -13 -114 -30 -165 -43 -128 -60 -198 -59
-245 1 -14 2 -50 2 -80 3 -80 -8 -270 -15 -294 -4 -11 -8 -32 -10 -46 -1 -14
-9 -61 -18 -106 -9 -45 -19 -130 -21 -190 -3 -60 -7 -127 -9 -149 -3 -22 -6
-116 -7 -210 -1 -93 -7 -188 -14 -210 -16 -58 -18 -126 -4 -160 7 -17 14 -40
15 -51 7 -60 121 -233 179 -272 59 -40 235 -89 350 -97 11 -1 23 -3 28 -3 4
-1 -8 -17 -27 -35 -57 -55 -65 -75 -61 -152 6 -125 16 -212 30 -252 l13 -38
1646 -2 1646 -3 1 88 c1 48 3 98 5 112 2 14 4 51 5 83 1 44 5 60 18 64 48 16
181 87 200 107 30 32 121 215 155 311 39 109 47 147 34 162 -7 9 -2 21 21 44
39 39 40 71 2 127 l-28 44 24 71 c14 39 32 76 39 82 21 15 44 110 44 180 0 66
-20 119 -71 190 -27 37 -32 53 -31 97 0 33 9 68 21 93 12 21 21 45 21 53 0 8
-25 38 -57 67 l-56 54 31 63 c49 100 75 168 77 196 2 39 -43 168 -71 201 -13
16 -24 42 -24 57 0 16 -5 49 -11 74 -6 25 -12 56 -14 70 -3 14 -9 42 -14 62
-5 20 -7 38 -6 40 6 6 17 115 17 163 -1 61 -6 84 -26 123 -10 19 -12 32 -5 34
11 4 -6 60 -94 303 -29 83 -67 173 -84 200 -34 57 -111 116 -178 136 -25 7
-45 16 -45 20 0 4 -12 10 -27 14 -32 9 -28 8 -108 29 -33 8 -118 36 -190 61
-71 26 -134 48 -140 49 -45 10 -166 50 -190 62 -16 9 -69 20 -118 25 -102 10
-117 17 -148 61 -22 31 -53 69 -145 172 -24 27 -50 46 -63 46 -25 0 -135 71
-139 91 -2 7 -6 25 -8 39 -11 68 -14 88 -19 122 -5 28 1 50 23 95 33 66 43 99
48 165 3 39 10 54 43 88 21 22 46 57 55 78 10 20 22 46 28 56 14 26 15 32 32
246 2 25 -1 70 -6 100 -5 30 -11 71 -12 90 -2 19 -10 52 -19 72 -10 21 -17 44
-17 53 0 8 -5 15 -12 15 -6 0 -9 3 -6 6 3 3 -2 31 -11 62 -9 31 -16 64 -16 72
0 8 -4 18 -10 22 -6 5 -6 8 2 8 9 0 8 7 -2 27 -8 15 -12 30 -9 35 3 4 1 8 -4
8 -6 0 -13 7 -16 16 -4 9 -2 13 5 8 8 -4 8 -1 1 12 -10 19 -12 26 -12 45 0 5
-5 7 -11 3 -8 -4 -9 0 -4 15 4 12 2 21 -4 21 -6 0 -11 9 -11 19 0 11 -6 26
-13 33 -7 7 -14 18 -15 23 -6 28 -16 51 -26 57 -7 5 -6 8 3 8 11 0 9 4 -5 14
-10 8 -16 17 -12 21 8 8 -53 71 -65 67 -5 -1 -6 2 -3 7 9 13 -24 43 -40 37 -8
-3 -13 -2 -13 2 4 22 -4 34 -26 44 -13 6 -21 16 -18 22 4 6 -2 4 -12 -4 -11
-9 -16 -10 -11 -2 7 11 -5 16 -40 15 -6 0 -11 6 -11 13 0 7 5 10 11 7 6 -3 5
0 -2 8 -11 12 -14 12 -22 -1 -5 -8 -10 -10 -10 -4 0 11 -30 20 -92 28 -14 2
-31 7 -37 10 -6 4 -9 1 -5 -7 3 -10 -2 -14 -18 -14 -58 -1 -69 -3 -62 -15 5
-7 3 -8 -7 -2 -8 5 -18 9 -24 9 -5 1 -9 7 -7 14 2 9 -3 11 -13 7 -10 -4 -25 4
-41 21 -13 14 -24 21 -24 15 0 -6 -21 -9 -52 -8 -43 2 -52 5 -50 18 1 9 -1 19
-6 22 -5 3 -8 -6 -6 -20z m913 -995 c14 -39 15 -67 2 -53 -13 13 -31 84 -21
84 4 0 13 -14 19 -31z"/>
<path d="M2846 6432 c-3 -5 1 -9 9 -9 8 0 12 4 9 9 -3 4 -7 8 -9 8 -2 0 -6 -4
-9 -8z"/>
</g>
</svg>
